# Blender 3.4.1
# www.blender.org
mtllib table2.mtl
o Cube
v 0.000000 0.680000 -0.600000
v 0.000000 0.720000 -0.600000
v 0.822369 0.679046 0.427836
v 0.841986 -0.068392 0.447452
v 0.860461 0.557395 0.451158
v 0.860461 0.683407 0.451158
v 0.860461 0.557395 0.000000
v 0.860461 0.683407 0.000000
v 0.900988 0.557395 0.451158
v 0.900988 0.683407 0.451158
v 0.900988 0.557395 0.000000
v 0.900988 0.683407 0.000000
v 0.853045 0.329678 0.452516
v 0.853045 0.455690 0.452516
v 0.853045 0.329678 -0.015378
v 0.853045 0.455690 -0.015378
v 0.893573 0.329678 0.452516
v 0.893573 0.455690 0.452516
v 0.893573 0.329678 -0.015378
v 0.893573 0.455690 -0.015378
v 0.994646 0.720000 -0.600000
v 1.000000 0.714646 -0.600000
v 0.994646 0.720000 0.594646
v 1.000000 0.714646 0.600000
v 0.000000 0.714646 0.600000
v 0.000000 0.720000 0.594646
v 1.000000 0.686927 -0.600000
v 0.997228 0.679995 -0.596080
v 0.993059 0.680000 -0.600000
v 1.000005 0.682772 -0.596080
v 0.993068 0.680000 0.593314
v 1.000005 0.682772 0.595204
v 0.995204 0.682772 0.600005
v 0.997228 0.679995 0.592428
v 1.000000 0.686901 0.600000
v 0.992428 0.679995 0.597228
v 0.000000 0.680000 0.593314
v 0.000000 0.682767 0.600000
v 0.000000 0.680000 0.597233
v 0.000000 0.686893 0.600000
v 0.827883 0.679046 0.541568
v 0.822369 0.679046 0.536055
v 0.847355 -0.062881 0.522096
v 0.841986 -0.068392 0.516438
v 0.936101 0.679046 0.536054
v 0.930587 0.679046 0.541568
v 0.910971 -0.068392 0.516438
v 0.911115 -0.062881 0.522096
v 0.916629 -0.062881 0.516582
v 0.930588 0.679046 0.427836
v 0.936101 0.679046 0.433350
v 0.916629 -0.062881 0.452822
v 0.910971 -0.068392 0.447452
v -0.822369 0.679046 0.427836
v -0.841986 -0.068392 0.447452
v -0.860461 0.557395 0.451158
v -0.860461 0.683407 0.451158
v -0.860461 0.557395 0.000000
v -0.860461 0.683407 0.000000
v -0.900988 0.557395 0.451158
v -0.900988 0.683407 0.451158
v -0.900988 0.557395 0.000000
v -0.900988 0.683407 0.000000
v -0.853045 0.329678 0.452516
v -0.853045 0.455690 0.452516
v -0.853045 0.329678 -0.015378
v -0.853045 0.455690 -0.015378
v -0.893573 0.329678 0.452516
v -0.893573 0.455690 0.452516
v -0.893573 0.329678 -0.015378
v -0.893573 0.455690 -0.015378
v -0.994646 0.720000 -0.600000
v -1.000000 0.714646 -0.600000
v -0.994646 0.720000 0.594646
v -1.000000 0.714646 0.600000
v -1.000000 0.686927 -0.600000
v -0.997228 0.679995 -0.596080
v -0.993059 0.680000 -0.600000
v -1.000005 0.682772 -0.596080
v -0.993068 0.680000 0.593314
v -1.000005 0.682772 0.595204
v -0.995204 0.682772 0.600005
v -0.997228 0.679995 0.592428
v -1.000000 0.686901 0.600000
v -0.992428 0.679995 0.597228
v -0.827883 0.679046 0.541568
v -0.822369 0.679046 0.536055
v -0.847355 -0.062881 0.522096
v -0.841986 -0.068392 0.516438
v -0.936101 0.679046 0.536054
v -0.930587 0.679046 0.541568
v -0.910971 -0.068392 0.516438
v -0.911115 -0.062881 0.522096
v -0.916629 -0.062881 0.516582
v -0.930588 0.679046 0.427836
v -0.936101 0.679046 0.433350
v -0.916629 -0.062881 0.452822
v -0.910971 -0.068392 0.447452
v 0.000000 0.680000 0.600000
v 0.000000 0.720000 0.600000
v 0.822369 0.679046 -0.427836
v 0.841986 -0.068392 -0.447452
v 0.860461 0.557395 -0.451158
v 0.860461 0.683407 -0.451158
v 0.900988 0.557395 -0.451158
v 0.900988 0.683407 -0.451158
v 0.853045 0.329678 -0.452516
v 0.853045 0.455690 -0.452516
v 0.853045 0.329678 0.015378
v 0.853045 0.455690 0.015378
v 0.893573 0.329678 -0.452516
v 0.893573 0.455690 -0.452516
v 0.893573 0.329678 0.015378
v 0.893573 0.455690 0.015378
v 0.994646 0.720000 0.600000
v 1.000000 0.714646 0.600000
v 0.994646 0.720000 -0.594646
v 1.000000 0.714646 -0.600000
v 0.000000 0.714646 -0.600000
v 0.000000 0.720000 -0.594646
v 1.000000 0.686927 0.600000
v 0.997228 0.679995 0.596080
v 0.993059 0.680000 0.600000
v 1.000005 0.682772 0.596080
v 0.993068 0.680000 -0.593314
v 1.000005 0.682772 -0.595204
v 0.995204 0.682772 -0.600005
v 0.997228 0.679995 -0.592428
v 1.000000 0.686901 -0.600000
v 0.992428 0.679995 -0.597228
v 0.000000 0.680000 -0.593314
v 0.000000 0.682767 -0.600000
v 0.000000 0.680000 -0.597233
v 0.000000 0.686893 -0.600000
v 0.827883 0.679046 -0.541568
v 0.822369 0.679046 -0.536055
v 0.847355 -0.062881 -0.522096
v 0.841986 -0.068392 -0.516438
v 0.936101 0.679046 -0.536054
v 0.930587 0.679046 -0.541568
v 0.910971 -0.068392 -0.516438
v 0.911115 -0.062881 -0.522096
v 0.916629 -0.062881 -0.516582
v 0.930588 0.679046 -0.427836
v 0.936101 0.679046 -0.433350
v 0.916629 -0.062881 -0.452822
v 0.910971 -0.068392 -0.447452
v -0.822369 0.679046 -0.427836
v -0.841986 -0.068392 -0.447452
v -0.860461 0.557395 -0.451158
v -0.860461 0.683407 -0.451158
v -0.900988 0.557395 -0.451158
v -0.900988 0.683407 -0.451158
v -0.853045 0.329678 -0.452516
v -0.853045 0.455690 -0.452516
v -0.853045 0.329678 0.015378
v -0.853045 0.455690 0.015378
v -0.893573 0.329678 -0.452516
v -0.893573 0.455690 -0.452516
v -0.893573 0.329678 0.015378
v -0.893573 0.455690 0.015378
v -0.994646 0.720000 0.600000
v -1.000000 0.714646 0.600000
v -0.994646 0.720000 -0.594646
v -1.000000 0.714646 -0.600000
v -1.000000 0.686927 0.600000
v -0.997228 0.679995 0.596080
v -0.993059 0.680000 0.600000
v -1.000005 0.682772 0.596080
v -0.993068 0.680000 -0.593314
v -1.000005 0.682772 -0.595204
v -0.995204 0.682772 -0.600005
v -0.997228 0.679995 -0.592428
v -1.000000 0.686901 -0.600000
v -0.992428 0.679995 -0.597228
v -0.827883 0.679046 -0.541568
v -0.822369 0.679046 -0.536055
v -0.847355 -0.062881 -0.522096
v -0.841986 -0.068392 -0.516438
v -0.936101 0.679046 -0.536054
v -0.930587 0.679046 -0.541568
v -0.910971 -0.068392 -0.516438
v -0.911115 -0.062881 -0.522096
v -0.916629 -0.062881 -0.516582
v -0.930588 0.679046 -0.427836
v -0.936101 0.679046 -0.433350
v -0.916629 -0.062881 -0.452822
v -0.910971 -0.068392 -0.447452
vn -0.0000 -1.0000 -0.0000
vn -0.0000 1.0000 -0.0000
vn -0.0000 0.7071 -0.7071
vn -0.0000 0.0262 -0.9997
vn -0.0000 0.0262 0.9997
vn 0.9997 0.0262 -0.0000
vn -0.9997 0.0262 -0.0000
vn -1.0000 -0.0000 -0.0000
vn -0.0000 -0.0000 -1.0000
vn 1.0000 -0.0000 -0.0000
vn -0.0000 -0.0000 1.0000
vn 0.9520 -0.3062 -0.0000
vn 0.7071 0.7071 -0.0000
vn -0.0000 0.7071 0.7071
vn 0.2870 -0.9139 0.2870
vn 0.4855 -0.7271 0.4854
vn -0.0000 -0.9239 0.3825
vn -0.4082 0.8165 -0.4082
vn -0.0000 -0.3725 0.9280
vn 0.3708 -0.9287 -0.0000
vn 0.5642 -0.5662 -0.6009
vn 0.9283 -0.3719 -0.0000
vn -0.7071 0.7071 -0.0000
vn -0.5672 0.5972 -0.5672
vn 0.7066 0.0371 -0.7067
vn -0.7067 0.0371 0.7066
vn -0.6977 0.7164 -0.0000
vn -0.7066 0.0371 -0.7066
vn -0.0000 0.7164 -0.6977
vn -0.9520 -0.3062 -0.0000
vn -0.2870 -0.9139 0.2870
vn -0.4855 -0.7271 0.4854
vn 0.4082 0.8165 -0.4082
vn -0.3708 -0.9287 -0.0000
vn -0.5642 -0.5662 -0.6009
vn -0.9283 -0.3719 -0.0000
vn 0.5672 0.5972 -0.5672
vn -0.7066 0.0371 -0.7067
vn 0.7067 0.0371 0.7066
vn 0.6977 0.7164 -0.0000
vn 0.7066 0.0371 -0.7066
vn 0.2870 -0.9139 -0.2870
vn 0.4855 -0.7271 -0.4854
vn -0.0000 -0.9239 -0.3825
vn -0.4082 0.8165 0.4082
vn -0.0000 -0.3725 -0.9280
vn 0.5642 -0.5662 0.6009
vn -0.5672 0.5972 0.5672
vn 0.7066 0.0371 0.7067
vn -0.7067 0.0371 -0.7066
vn -0.7066 0.0371 0.7066
vn -0.0000 0.7164 0.6977
vn -0.2870 -0.9139 -0.2870
vn -0.4855 -0.7271 -0.4854
vn 0.4082 0.8165 0.4082
vn -0.5642 -0.5662 0.6009
vn 0.5672 0.5972 0.5672
vn -0.7066 0.0371 0.7067
vn 0.7067 0.0371 -0.7066
vn 0.7066 0.0371 0.7066
vt 0.250000 0.500000
vt 0.375000 0.375000
vt 0.750000 0.500000
vt 0.625000 0.375000
vt 0.276599 0.985386
vt 0.171063 0.544019
vt 0.251026 0.010993
vt 0.375000 0.000000
vt 0.375000 1.000000
vt 0.125000 0.750000
vt 0.625000 0.000000
vt 0.625000 1.000000
vt 0.875000 0.750000
vt 0.375000 0.250000
vt 0.125000 0.500000
vt 0.625000 0.250000
vt 0.875000 0.500000
vt 0.375000 0.750000
vt 0.625000 0.750000
vt 0.375000 0.500000
vt 0.625000 0.500000
vt 0.375000 0.000000
vt 0.125000 0.750000
vt 0.375000 1.000000
vt 0.625000 0.000000
vt 0.875000 0.750000
vt 0.625000 1.000000
vt 0.125000 0.500000
vt 0.375000 0.250000
vt 0.875000 0.500000
vt 0.625000 0.250000
vt 0.375000 0.750000
vt 0.625000 0.750000
vt 0.375000 0.500000
vt 0.625000 0.500000
vt 0.625669 0.500000
vt 0.625000 0.499331
vt 0.591538 0.500000
vt 0.625669 0.748885
vt 0.625000 0.750669
vt 0.591538 0.750000
vt 0.591538 0.875000
vt 0.750000 0.748885
vt 0.625000 0.875000
vt 0.418292 0.500000
vt 0.374622 0.500817
vt 0.374132 0.500000
vt 0.375000 0.499132
vt 0.392324 0.500817
vt 0.374654 0.748607
vt 0.374134 0.748607
vt 0.382122 0.749668
vt 0.374801 0.749668
vt 0.392324 0.749001
vt 0.382122 0.749668
vt 0.374401 0.750001
vt 0.392292 0.748422
vt 0.374654 0.749424
vt 0.374622 0.748422
vt 0.392292 0.750000
vt 0.375000 0.750000
vt 0.418133 0.750000
vt 0.374654 0.749424
vt 0.374053 0.749423
vt 0.250000 0.748607
vt 0.250000 0.750000
vt 0.250000 0.749424
vt 0.418081 0.875000
vt 0.250000 0.750000
vt 0.406532 0.946183
vt 0.406580 -0.044019
vt 0.182479 0.794019
vt 0.135520 0.985386
vt 0.406532 -0.027533
vt 0.171063 0.781900
vt 0.649206 0.942286
vt 0.654737 -0.044019
vt 0.153717 0.018176
vt 0.656532 -0.022185
vt 0.161093 0.010993
vt 0.135521 0.985386
vt 0.406532 0.781898
vt 0.406532 0.801772
vt 0.128333 0.985386
vt 0.395115 0.794019
vt 0.161093 0.010993
vt 0.583148 0.805670
vt 0.153718 0.018176
vt 0.160906 0.018176
vt 0.276599 0.985386
vt 0.395117 0.544019
vt 0.269411 0.985386
vt 0.406532 0.556140
vt 0.244026 0.018176
vt 0.251026 0.010993
vt 0.276599 0.985386
vt 0.251026 0.010993
vt 0.375000 0.000000
vt 0.375000 1.000000
vt 0.125000 0.750000
vt 0.625000 0.000000
vt 0.625000 1.000000
vt 0.875000 0.750000
vt 0.375000 0.250000
vt 0.125000 0.500000
vt 0.625000 0.250000
vt 0.875000 0.500000
vt 0.375000 0.750000
vt 0.625000 0.750000
vt 0.375000 0.500000
vt 0.625000 0.500000
vt 0.375000 0.000000
vt 0.125000 0.750000
vt 0.375000 1.000000
vt 0.625000 0.000000
vt 0.875000 0.750000
vt 0.625000 1.000000
vt 0.125000 0.500000
vt 0.375000 0.250000
vt 0.875000 0.500000
vt 0.625000 0.250000
vt 0.375000 0.750000
vt 0.625000 0.750000
vt 0.375000 0.500000
vt 0.625000 0.500000
vt 0.625669 0.500000
vt 0.625000 0.499331
vt 0.591538 0.500000
vt 0.625669 0.748885
vt 0.625000 0.750669
vt 0.591538 0.750000
vt 0.418292 0.500000
vt 0.374622 0.500817
vt 0.374132 0.500000
vt 0.375000 0.499132
vt 0.392324 0.500817
vt 0.374654 0.748607
vt 0.374134 0.748607
vt 0.382122 0.749668
vt 0.374801 0.749668
vt 0.392324 0.749001
vt 0.382122 0.749668
vt 0.374401 0.750001
vt 0.392292 0.748422
vt 0.374654 0.749424
vt 0.374622 0.748422
vt 0.392292 0.750000
vt 0.375000 0.750000
vt 0.418133 0.750000
vt 0.374654 0.749424
vt 0.374053 0.749423
vt 0.128333 0.985386
vt 0.135520 0.985386
vt 0.153717 0.018176
vt 0.161093 0.010993
vt 0.135521 0.985386
vt 0.128333 0.985386
vt 0.161093 0.010993
vt 0.153718 0.018176
vt 0.160906 0.018176
vt 0.276599 0.985386
vt 0.269411 0.985386
vt 0.244026 0.018176
vt 0.251026 0.010993
vt 0.250000 0.500000
vt 0.375000 0.375000
vt 0.500000 0.221308
vt 0.625000 0.375000
vt 0.406532 0.296063
vt 0.705476 0.985771
vt 0.171063 0.544019
vt 0.656532 0.251022
vt 0.730994 0.013499
vt 0.375000 0.000000
vt 0.375000 1.000000
vt 0.125000 0.750000
vt 0.625000 0.000000
vt 0.625000 1.000000
vt 0.875000 0.750000
vt 0.375000 0.750000
vt 0.625000 0.750000
vt 0.375000 0.000000
vt 0.125000 0.750000
vt 0.375000 1.000000
vt 0.625000 0.000000
vt 0.875000 0.750000
vt 0.625000 1.000000
vt 0.125000 0.500000
vt 0.375000 0.250000
vt 0.875000 0.500000
vt 0.625000 0.250000
vt 0.375000 0.750000
vt 0.625000 0.750000
vt 0.375000 0.500000
vt 0.625000 0.500000
vt 0.963004 0.221308
vt 0.625669 0.500000
vt 0.625000 0.499331
vt 0.591538 0.500000
vt 0.963004 0.777412
vt 0.625669 0.748885
vt 0.625000 0.750669
vt 0.591538 0.750000
vt 0.591538 0.875000
vt 0.500000 0.777412
vt 0.625000 0.875000
vt 0.418292 0.500000
vt 0.374622 0.500817
vt 0.374132 0.500000
vt 0.375000 0.499132
vt 0.392324 0.500817
vt 0.374654 0.748607
vt 0.374134 0.748607
vt 0.382122 0.749668
vt 0.374801 0.749668
vt 0.392324 0.749001
vt 0.382122 0.749668
vt 0.374401 0.750001
vt 0.392292 0.748422
vt 0.374654 0.749424
vt 0.374622 0.748422
vt 0.392292 0.750000
vt 0.375000 0.750000
vt 0.418133 0.750000
vt 0.374654 0.749424
vt 0.374053 0.749423
vt 0.250000 0.748607
vt 0.250000 0.750000
vt 0.250000 0.749424
vt 0.418081 0.875000
vt 0.250000 0.750000
vt 0.853420 0.985771
vt 0.182479 0.794019
vt 0.846249 0.985771
vt 0.171063 0.781900
vt 0.828091 0.020667
vt 0.820731 0.013499
vt 0.846247 0.985771
vt 0.406532 0.781898
vt 0.853420 0.985771
vt 0.395115 0.794019
vt 0.820731 0.013499
vt 0.828090 0.020667
vt 0.820918 0.020667
vt 0.406532 0.531999
vt 0.622733 0.694797
vt 0.395117 0.544019
vt 0.712649 0.985771
vt 0.624314 0.694797
vt 0.406532 0.556140
vt 0.629900 0.481961
vt 0.737979 0.020667
vt 0.584679 0.522336
vt 0.628360 0.480381
vt 0.730994 0.013499
vt 0.705476 0.985771
vt 0.171063 0.544019
vt 0.730994 0.013499
vt 0.375000 0.000000
vt 0.375000 1.000000
vt 0.125000 0.750000
vt 0.625000 0.000000
vt 0.625000 1.000000
vt 0.875000 0.750000
vt 0.375000 0.750000
vt 0.625000 0.750000
vt 0.375000 0.000000
vt 0.125000 0.750000
vt 0.375000 1.000000
vt 0.625000 0.000000
vt 0.875000 0.750000
vt 0.625000 1.000000
vt 0.125000 0.500000
vt 0.375000 0.250000
vt 0.875000 0.500000
vt 0.625000 0.250000
vt 0.375000 0.750000
vt 0.625000 0.750000
vt 0.375000 0.500000
vt 0.625000 0.500000
vt 0.036996 0.221308
vt 0.625669 0.500000
vt 0.625000 0.499331
vt 0.591538 0.500000
vt 0.036996 0.777412
vt 0.625669 0.748885
vt 0.625000 0.750669
vt 0.591538 0.750000
vt 0.418292 0.500000
vt 0.374622 0.500817
vt 0.374132 0.500000
vt 0.375000 0.499132
vt 0.392324 0.500817
vt 0.374654 0.748607
vt 0.374134 0.748607
vt 0.382122 0.749668
vt 0.374801 0.749668
vt 0.392324 0.749001
vt 0.382122 0.749668
vt 0.374401 0.750001
vt 0.392292 0.748422
vt 0.374654 0.749424
vt 0.374622 0.748422
vt 0.392292 0.750000
vt 0.375000 0.750000
vt 0.418133 0.750000
vt 0.374654 0.749424
vt 0.374053 0.749423
vt 0.406532 0.946183
vt 0.655359 0.694797
vt 0.182479 0.794019
vt 0.846249 0.985771
vt 0.653777 0.694797
vt 0.171063 0.781900
vt 0.649206 0.942286
vt 0.649773 0.481961
vt 0.828091 0.020667
vt 0.648150 0.480381
vt 0.820731 0.013499
vt 0.846247 0.985771
vt 0.406532 0.781898
vt 0.406532 0.801772
vt 0.853420 0.985771
vt 0.395115 0.794019
vt 0.820731 0.013499
vt 0.583148 0.805670
vt 0.828090 0.020667
vt 0.820918 0.020667
vt 0.705476 0.985771
vt 0.395117 0.544019
vt 0.712649 0.985771
vt 0.406532 0.556140
vt 0.737979 0.020667
vt 0.730994 0.013499
s 0
usemtl Material
f 1/1/1 29/47/1 31/51/1 37/65/1
f 21/36/2 2/3/2 26/43/2 23/39/2
f 38/66/3 33/56/3 36/64/3 39/67/3
f 46/83/4 48/87/4 43/76/4 41/70/4
f 3/5/5 4/7/5 53/95/5 50/90/5
f 53/95/2 4/7/2 44/80/2 47/86/2
f 42/73/6 44/80/6 4/7/6 3/5/6
f 51/92/7 52/94/7 49/89/7 45/81/7
f 5/8/8 6/11/8 8/16/8 7/14/8
f 7/14/9 8/16/9 12/21/9 11/20/9
f 11/20/10 12/21/10 10/19/10 9/18/10
f 9/18/11 10/19/11 6/12/11 5/9/11
f 7/15/1 11/20/1 9/18/1 5/10/1
f 12/21/2 8/17/2 6/13/2 10/19/2
f 13/22/8 14/25/8 16/31/8 15/29/8
f 15/29/9 16/31/9 20/35/9 19/34/9
f 19/34/10 20/35/10 18/33/10 17/32/10
f 17/32/11 18/33/11 14/27/11 13/24/11
f 15/28/1 19/34/1 17/32/1 13/23/1
f 20/35/2 16/30/2 14/26/2 18/33/2
f 20/35/12 18/33/12 14/27/12 17/32/12 13/24/12 15/29/12 19/34/12 16/31/12
f 21/36/13 23/39/13 24/41/13 22/38/13
f 23/40/14 26/44/14 25/42/14 24/41/14
f 35/62/11 24/41/11 25/42/11 40/68/11
f 27/45/10 22/38/10 24/41/10 35/62/10
f 1/2/9 2/4/9 21/37/9 22/38/9 27/45/9 29/48/9
f 31/50/15 32/52/15 33/55/15
f 34/57/16 35/60/16 36/63/16
f 37/65/17 31/51/17 33/56/17 38/66/17
f 32/53/18 34/58/18 36/64/18 33/56/18
f 35/61/19 40/69/19 39/67/19 36/64/19
f 31/51/20 29/47/20 30/49/20 32/54/20
f 29/48/21 27/45/21 28/46/21 30/49/21
f 27/45/22 35/62/22 34/59/22 28/46/22
f 32/54/23 30/49/23 28/46/23 34/59/23
f 47/86/24 48/88/24 49/89/24
f 41/71/25 43/77/25 44/79/25 42/74/25
f 52/94/26 51/92/26 50/90/26 53/95/26
f 53/95/27 47/86/27 49/89/27 52/94/27
f 48/88/28 46/84/28 45/81/28 49/89/28
f 47/86/29 44/80/29 43/78/29 48/88/29
f 3/6/1 50/91/1 51/93/1 45/82/1 46/85/1 41/72/1 42/75/1
f 1/1/1 37/65/1 80/138/1 78/134/1
f 72/126/2 74/129/2 26/43/2 2/3/2
f 38/66/3 39/67/3 85/151/3 82/143/3
f 91/157/4 86/152/4 88/154/4 93/159/4
f 54/96/5 95/161/5 98/164/5 55/97/5
f 98/164/2 92/158/2 89/155/2 55/97/2
f 87/153/7 54/96/7 55/97/7 89/155/7
f 96/162/6 90/156/6 94/160/6 97/163/6
f 56/98/10 58/104/10 59/106/10 57/101/10
f 58/104/9 62/110/9 63/111/9 59/106/9
f 62/110/8 60/108/8 61/109/8 63/111/8
f 60/108/11 56/99/11 57/102/11 61/109/11
f 58/105/1 56/100/1 60/108/1 62/110/1
f 63/111/2 61/109/2 57/103/2 59/107/2
f 64/112/10 66/119/10 67/121/10 65/115/10
f 66/119/9 70/124/9 71/125/9 67/121/9
f 70/124/8 68/122/8 69/123/8 71/125/8
f 68/122/11 64/114/11 65/117/11 69/123/11
f 66/118/1 64/113/1 68/122/1 70/124/1
f 71/125/2 69/123/2 65/116/2 67/120/2
f 71/125/30 67/121/30 70/124/30 66/119/30 64/114/30 68/122/30 65/117/30 69/123/30
f 72/126/23 73/128/23 75/131/23 74/129/23
f 74/130/14 75/131/14 25/42/14 26/44/14
f 84/149/11 40/68/11 25/42/11 75/131/11
f 76/132/8 84/149/8 75/131/8 73/128/8
f 1/2/9 78/135/9 76/132/9 73/128/9 72/127/9 2/4/9
f 80/137/31 82/142/31 81/139/31
f 83/144/32 85/150/32 84/147/32
f 37/65/17 38/66/17 82/143/17 80/138/17
f 81/140/33 82/143/33 85/151/33 83/145/33
f 84/148/19 85/151/19 39/67/19 40/69/19
f 80/138/34 81/141/34 79/136/34 78/134/34
f 78/135/35 79/136/35 77/133/35 76/132/35
f 76/132/36 77/133/36 83/146/36 84/149/36
f 81/141/13 83/146/13 77/133/13 79/136/13
f 92/158/37 94/160/37 93/159/37
f 86/152/38 87/153/38 89/155/38 88/154/38
f 97/163/39 98/164/39 95/161/39 96/162/39
f 98/164/40 97/163/40 94/160/40 92/158/40
f 93/159/41 94/160/41 90/156/41 91/157/41
f 92/158/29 93/159/29 88/154/29 89/155/29
f 54/96/1 87/153/1 86/152/1 91/157/1 90/156/1 96/162/1 95/161/1
f 99/165/1 131/227/1 125/213/1 123/209/1
f 115/196/2 117/200/2 120/205/2 100/167/2
f 132/228/14 133/229/14 130/226/14 127/218/14
f 140/240/5 135/232/5 137/236/5 142/243/5
f 101/169/4 144/245/4 147/253/4 102/172/4
f 147/255/2 141/242/2 138/237/2 102/173/2
f 136/234/6 101/170/6 102/173/6 138/237/6
f 145/248/7 139/238/7 143/244/7 146/252/7
f 103/174/8 7/14/8 8/16/8 104/177/8
f 11/20/10 105/180/10 106/181/10 12/21/10
f 105/180/9 103/175/9 104/178/9 106/181/9
f 7/15/1 103/176/1 105/180/1 11/20/1
f 12/21/2 106/181/2 104/179/2 8/17/2
f 107/182/8 109/189/8 110/191/8 108/185/8
f 109/189/11 113/194/11 114/195/11 110/191/11
f 113/194/10 111/192/10 112/193/10 114/195/10
f 111/192/9 107/184/9 108/187/9 112/193/9
f 109/188/1 107/183/1 111/192/1 113/194/1
f 114/195/2 112/193/2 108/186/2 110/190/2
f 114/195/12 110/191/12 113/194/12 109/189/12 107/184/12 111/192/12 108/187/12 112/193/12
f 115/197/13 116/199/13 118/203/13 117/201/13
f 117/202/3 118/203/3 119/204/3 120/206/3
f 129/224/9 134/230/9 119/204/9 118/203/9
f 121/207/10 129/224/10 118/203/10 116/199/10
f 99/166/11 123/210/11 121/207/11 116/199/11 115/198/11 100/168/11
f 125/212/42 127/217/42 126/214/42
f 128/219/43 130/225/43 129/222/43
f 131/227/44 132/228/44 127/218/44 125/213/44
f 126/215/45 127/218/45 130/226/45 128/220/45
f 129/223/46 130/226/46 133/229/46 134/231/46
f 125/213/20 126/216/20 124/211/20 123/209/20
f 123/210/47 124/211/47 122/208/47 121/207/47
f 121/207/22 122/208/22 128/221/22 129/224/22
f 126/216/23 128/221/23 122/208/23 124/211/23
f 141/242/48 143/244/48 142/243/48
f 135/232/49 136/234/49 138/237/49 137/236/49
f 146/251/50 147/254/50 144/246/50 145/249/50
f 147/255/27 146/252/27 143/244/27 141/242/27
f 142/243/51 143/244/51 139/238/51 140/240/51
f 141/242/52 142/243/52 137/236/52 138/237/52
f 101/171/1 136/235/1 135/233/1 140/241/1 139/239/1 145/250/1 144/247/1
f 99/165/1 168/291/1 170/295/1 131/227/1
f 162/281/2 100/167/2 120/205/2 164/285/2
f 132/228/14 172/300/14 175/308/14 133/229/14
f 181/322/5 183/326/5 178/315/5 176/309/5
f 148/256/4 149/258/4 188/334/4 185/329/4
f 188/334/2 149/258/2 179/319/2 182/325/2
f 177/312/7 179/319/7 149/258/7 148/256/7
f 186/331/6 187/333/6 184/328/6 180/320/6
f 150/259/10 151/262/10 59/106/10 58/104/10
f 62/110/8 63/111/8 153/266/8 152/265/8
f 152/265/9 153/266/9 151/263/9 150/260/9
f 58/105/1 62/110/1 152/265/1 150/261/1
f 63/111/2 59/107/2 151/264/2 153/266/2
f 154/267/10 155/270/10 157/276/10 156/274/10
f 156/274/11 157/276/11 161/280/11 160/279/11
f 160/279/8 161/280/8 159/278/8 158/277/8
f 158/277/9 159/278/9 155/272/9 154/269/9
f 156/273/1 160/279/1 158/277/1 154/268/1
f 161/280/2 157/275/2 155/271/2 159/278/2
f 161/280/30 159/278/30 155/272/30 158/277/30 154/269/30 156/274/30 160/279/30 157/276/30
f 162/282/23 164/286/23 165/288/23 163/284/23
f 164/287/3 120/206/3 119/204/3 165/288/3
f 174/306/9 165/288/9 119/204/9 134/230/9
f 166/289/8 163/284/8 165/288/8 174/306/8
f 99/166/11 100/168/11 162/283/11 163/284/11 166/289/11 168/292/11
f 170/294/53 171/296/53 172/299/53
f 173/301/54 174/304/54 175/307/54
f 131/227/44 170/295/44 172/300/44 132/228/44
f 171/297/55 173/302/55 175/308/55 172/300/55
f 174/305/46 134/231/46 133/229/46 175/308/46
f 170/295/34 168/291/34 169/293/34 171/298/34
f 168/292/56 166/289/56 167/290/56 169/293/56
f 166/289/36 174/306/36 173/303/36 167/290/36
f 171/298/13 169/293/13 167/290/13 173/303/13
f 182/325/57 183/327/57 184/328/57
f 176/310/58 178/316/58 179/318/58 177/313/58
f 187/333/59 186/331/59 185/329/59 188/334/59
f 188/334/40 182/325/40 184/328/40 187/333/40
f 183/327/60 181/323/60 180/320/60 184/328/60
f 182/325/52 179/319/52 178/317/52 183/327/52
f 148/257/1 185/330/1 186/332/1 180/321/1 181/324/1 176/311/1 177/314/1
